<svg width="22" height="28" viewBox="0 0 22 28" fill="none" xmlns="http://www.w3.org/2000/svg">
<path d="M5.66668 22H16.3333V19.3333H5.66668V22ZM5.66668 16.6667H16.3333V14H5.66668V16.6667ZM3.00001 27.3333C2.26668 27.3333 1.6389 27.0722 1.11668 26.55C0.594455 26.0278 0.333344 25.4 0.333344 24.6667V3.33333C0.333344 2.6 0.594455 1.97222 1.11668 1.45C1.6389 0.927778 2.26668 0.666667 3.00001 0.666667H13.6667L21.6667 8.66667V24.6667C21.6667 25.4 21.4056 26.0278 20.8833 26.55C20.3611 27.0722 19.7333 27.3333 19 27.3333H3.00001ZM12.3333 10V3.33333H3.00001V24.6667H19V10H12.3333Z" fill="#203562"/>
</svg>
